<?xml version="1.0" encoding="UTF-8" standalone="no"?>
<svg
   width="2500"
   height="2500"
   viewBox="0 0 192.756 192.756"
   version="1.1"
   id="svg10"
   xmlns="http://www.w3.org/2000/svg"
   xmlns:svg="http://www.w3.org/2000/svg">
  <defs
     id="defs14" />
  <g
     id="layer2"
     style="display:inline;fill:#ed111b;opacity:1;fill-opacity:1">
    <path
       style="display:inline;fill:#ed111b;stroke-width:0.0771024;image-rendering:auto;fill-opacity:1"
       d="M 59.646122,65.633763 37.42276,65.518616 c 0,0 -4.274093,0.349562 -9.688612,2.283676 -5.414519,1.934114 -11.877681,5.819293 -16.531168,11.790991 -3.3157046,4.254957 -6.3837135,10.129549 -7.6281557,15.89428 -1.2444423,5.764727 -0.6653179,11.419597 0.056396,15.235117 1.7016047,8.99593 5.9563128,16.09842 12.7196473,21.69632 8.920848,7.38364 21.302185,8.63602 21.302185,8.63602 v 18.6538 h 43.295253 v 10.13293 h 29.477624 l 0.11515,-10.13293 h 43.29525 v -16.92659 c 0,0 4.9011,0.26083 11.04872,-2.07777 3.98996,-1.51782 12.36108,-5.24513 19.58037,-16.34575 5.09056,-7.82742 6.45335,-19.41856 4.45475,-28.56364 -2.02047,-9.245164 -6.67133,-15.249777 -10.09695,-18.589037 -3.45545,-3.368335 -6.54526,-5.444249 -9.94663,-7.170564 -3.40136,-1.726316 -8.93747,-4.228985 -15.27055,-4.344132 -11.63305,-0.211511 -21.07189,0.05757 -21.07189,0.05757 0,0 -3.24505,-7.307852 -8.771,-12.865443 -5.52595,-5.557591 -13.3328,-9.364921 -13.33722,-8.55189 l 0.11515,-21.187039 -29.707918,-0.230295 0.345441,21.877922 c 0,0 -11.054108,1.49691 -21.532481,20.841598 z"
       id="path245" />
  </g>
  <g
     id="layer3"
     style="fill:#f5fffe;fill-opacity:1">
    <path
       style="opacity:1;fill:#f5fffe;stroke-width:0.0771024;fill-opacity:1"
       d="m 90.678228,33.047176 h 10.017782 l 0.0576,17.617483 c 0,0 -0.768927,-0.700837 5.60208,1.35581 4.24253,1.369545 6.23025,2.829485 9.31171,5.27464 3.08145,2.445156 6.47206,7.118349 7.28417,8.906139 2.6448,5.822329 3.01922,8.183684 3.01922,8.183684 h 24.69903 c 0,0 12.09043,-0.403014 21.30219,9.096612 9.21175,9.499617 8.34815,21.532476 8.34815,21.532476 0,0 0.23029,8.06029 -5.46948,16.46602 -5.69977,8.40572 -14.22065,10.99653 -14.22065,10.99653 0,0 -6.90882,1.78478 -8.57845,1.84235 -1.66963,0.0576 -6.79367,0.0576 -6.79367,0.0576 v 16.00543 l -9.84506,-0.0576 0.0576,-26.31107 15.48727,0.0576 c 0,0 6.5058,0.28786 12.03285,-4.49074 5.52706,-4.7786 6.67853,-10.76624 6.67853,-10.76624 0,0 2.01507,-6.33308 -1.55449,-13.414616 -3.56955,-7.081539 -10.01778,-9.269335 -10.01778,-9.269335 0,0 -2.70596,-1.324187 -5.8725,-1.554485 -3.16654,-0.230289 -25.56262,0.115153 -25.56262,0.115153 v 65.691333 l -9.84507,-0.0576 0.0576,-47.38297 c 0,0 -5.00888,4.08773 -7.82998,5.2392 -2.8211,1.15147 -5.12404,1.95749 -6.04522,2.13021 -0.92118,0.17272 -2.30294,0.40302 -2.30294,0.40302 l 0.11515,49.0526 H 90.678228 v -49.11018 l -0.115152,-0.23029 c 0,0 -6.217931,-1.61206 -8.348155,-2.76353 -2.130216,-1.15147 -4.202859,-2.53323 -5.757344,-3.91499 -1.554484,-1.38177 -0.863602,-0.80604 -0.863602,-0.80604 v 47.84357 l -9.729918,-0.11515 -0.05757,-65.576189 -8.578448,-0.115152 v 65.748911 l -9.960212,0.0576 0.05757,-65.748911 -4.778599,-0.05758 c 0,0 -7.254258,-0.690876 -13.702487,4.836178 -6.44823,5.527047 -6.160362,13.529763 -6.160362,13.529763 0,0 -0.403015,7.02396 4.548305,12.78132 4.951318,5.75734 12.148003,6.2755 12.148003,6.2755 v 9.44205 c 0,0 -8.636021,0.11515 -15.832706,-5.93007 -7.196684,-6.04521 -9.672344,-11.97528 -10.996534,-18.42351 -1.32419,-6.44823 0.921175,-13.472193 3.857423,-18.941675 2.936247,-5.469475 8.11786,-8.751169 8.11786,-8.751169 0,0 2.360513,-1.842347 6.505803,-3.511979 4.14529,-1.669631 9.44205,-1.727205 9.44205,-1.727205 l 25.908065,0.05757 c 0,0 1.612057,-6.678523 4.31801,-10.651093 2.705954,-3.972571 6.793674,-7.196685 6.793674,-7.196685 0,0 4.836171,-3.799849 8.636016,-4.951319 3.799853,-1.15147 4.548309,-1.093896 4.548309,-1.093896 z"
       id="path831" />
  </g>
  <g
     id="layer4"
     style="fill:#ed111b;fill-opacity:1">
    <path
       style="opacity:1;fill:#ed111b;stroke-width:0.0771024;fill-opacity:1"
       d="m 100.81116,59.703695 0.0576,41.798345 c 0,0 7.36667,-0.79619 13.08254,-8.968089 4.64592,-6.642189 3.49862,-13.831005 3.49862,-13.831005 0,0 0.0576,-5.987645 -4.72102,-11.802566 -4.7786,-5.814921 -11.91771,-7.196685 -11.91771,-7.196685 z"
       id="path899" />
    <path
       style="opacity:1;fill:#ed111b;stroke-width:0.0771024;fill-opacity:1"
       d="m 90.681722,60.069491 0.01963,41.224959 c 0,0 -1.1263,-0.17504 -4.133106,-1.551955 -2.293262,-1.050158 -4.881537,-2.978643 -6.866925,-5.506337 -4.633827,-5.899552 -4.145289,-9.211755 -4.145289,-9.211755 l 5.066462,-0.05757 -0.0067,-10.369614 -4.957578,0.0046 c 0,0 0.460809,-1.789902 1.70994,-4.258537 1.219966,-2.410996 2.966493,-4.336359 4.493323,-5.6289 0.943991,-0.799138 1.012911,-1.139913 4.291074,-2.978189 2.316153,-1.298815 4.44773,-1.809225 4.44773,-1.809225 z"
       id="path901" />
  </g>
</svg>
